# xmcd
#
# Track frame offsets:
#	150
#	11322
#	21231
#	43027
#	56797
#	87903
#	101914
#	113458
#	127612
#	140272
#	153940
#	172673
#	187348
#	200444
#	227689
#	246218
#
# Disc length: 3438
#
# Revision: 2
# Processed by: cddbd v1.5.1PL0 Copyright (c) Steve Scherf et al.
# Submitted via: EasyCDDAExtractor 5.0.6
# Normalized: r1:DSETVAR1,TDELIM( - )
#
DISCID=c60d6c10
DTITLE=Various Artist - Greatest Blues Of All Time Vol. 2
DYEAR=2000
DGENRE=Blues
TTITLE0=Jimmy Reed - It's You Baby
TTITLE1=John Lee Hooker - Dimples
TTITLE2=Elmore James - Something Inside Me
TTITLE3=Lightnin' Hopkins - Breakfast Time
TTITLE4=John Mayall and Bluesbreakers - Help Me
TTITLE5=Bessie Smith - Gulf Coast Blues
TTITLE6=Magic Sam - She Belongs To Me
TTITLE7=Billie Holliday - Good Morning Headache
TTITLE8=Big Bill Broonzy - Bad Acting Woman
TTITLE9=Robert Johnson - Sweet Home Chicago
TTITLE10=Albert King - Cold Women With Warm Hearts
TTITLE11=Howlin' Wolf - My Troubles And Me
TTITLE12=John Lee Hooker - Unfriendly Woman
TTITLE13=Louisiana Red - When My Mama Was Livin'
TTITLE14=Brownie McGhee - Blues On Parade
TTITLE15=Jimmy Reed - Down The Road
EXTD=
EXTT0=
EXTT1=
EXTT2=
EXTT3=
EXTT4=
EXTT5=
EXTT6=
EXTT7=
EXTT8=
EXTT9=
EXTT10=
EXTT11=
EXTT12=
EXTT13=
EXTT14=
EXTT15=
PLAYORDER=
